# xmcd
#
# Track frame offsets: 
#        150
#        16973
#        32390
#        54921
#        70822
#        94141
#        121132
#        139176
#        157765
#        179215
#        197333
#        219361
#        233870
#        259305
#        270644
#        290200
#        303797
#        325295
#
# Disc length: 4753 seconds
#
# Revision: 0
# Processed by: cddbd v1.5.2PL0 Copyright (c) Steve Scherf et al.
# Submitted via: ExactAudioCopy v1.3
#
DISCID=fc128f12
DTITLE=Various Artist - Akella Presents - vol.198 - Blues Instrumenta
DTITLE=l  CD2
DYEAR=2019
DGENRE=Blues
TTITLE0=Chris Turner - 5th Street Boogie
TTITLE1=Terry Medeiros - Gad About
TTITLE2=T. Nicks - Catfish
TTITLE3=Scott Van Zen - Letting Go
TTITLE4=Sidetrackers - Night Wind
TTITLE5=Nobby Reed Project - Praying The Blues
TTITLE6=Gary Smith - Minor Mambo
TTITLE7=Melvin Taylor - The Hook Up
TTITLE8=Jeremy Spencer - Sweet Were the Days
TTITLE9=Ronnie Earl - Drown In My Own Tears
TTITLE10=Steve Gannon - Down At The Deluxe Inn
TTITLE11=Mick Simpson - Moonshine Joe
TTITLE12=Pete Cornelius - Albatross
TTITLE13=Tom Euler - Tricky Business
TTITLE14=Mark Searcy - Mi Amor Por Ti
TTITLE15=Denny Freeman - Vigilante
TTITLE16=Gregg Wright - G's Blues
TTITLE17=Mal Eastick - Swept Away
EXTD=
EXTT0=
EXTT1=
EXTT2=
EXTT3=
EXTT4=
EXTT5=
EXTT6=
EXTT7=
EXTT8=
EXTT9=
EXTT10=
EXTT11=
EXTT12=
EXTT13=
EXTT14=
EXTT15=
EXTT16=
EXTT17=
PLAYORDER=
